<svg width="83" height="11" viewBox="0 0 83 11" fill="none" xmlns="http://www.w3.org/2000/svg">
<path d="M0.0200043 10.8V0.299999H3.605C4.835 0.299999 5.845 0.52 6.635 0.96C7.43501 1.39 8.025 2 8.405 2.79C8.795 3.57 8.99 4.49 8.99 5.55C8.99 6.61 8.795 7.535 8.405 8.325C8.025 9.105 7.43501 9.715 6.635 10.155C5.845 10.585 4.835 10.8 3.605 10.8H0.0200043ZM1.94 9.15H3.515C4.395 9.15 5.09 9.01 5.6 8.73C6.11 8.44 6.475 8.03 6.695 7.5C6.915 6.96 7.025 6.31 7.025 5.55C7.025 4.8 6.915 4.155 6.695 3.615C6.475 3.075 6.11 2.66 5.6 2.37C5.09 2.08 4.395 1.935 3.515 1.935H1.94V9.15Z" fill="white"/>
<path d="M14.2541 10.98C13.5041 10.98 12.8391 10.82 12.2591 10.5C11.6791 10.18 11.2241 9.73 10.8941 9.15C10.5641 8.57 10.3991 7.9 10.3991 7.14C10.3991 6.37 10.5591 5.685 10.8791 5.085C11.2091 4.485 11.6591 4.02 12.2291 3.69C12.8091 3.35 13.4891 3.18 14.2691 3.18C14.9991 3.18 15.6441 3.34 16.2041 3.66C16.7641 3.98 17.1991 4.42 17.5091 4.98C17.8291 5.53 17.9891 6.145 17.9891 6.825C17.9891 6.935 17.9841 7.05 17.9741 7.17C17.9741 7.29 17.9691 7.415 17.9591 7.545H12.3041C12.3441 8.125 12.5441 8.58 12.9041 8.91C13.2741 9.24 13.7191 9.405 14.2391 9.405C14.6291 9.405 14.9541 9.32 15.2141 9.15C15.4841 8.97 15.6841 8.74 15.8141 8.46H17.7641C17.6241 8.93 17.3891 9.36 17.0591 9.75C16.7391 10.13 16.3391 10.43 15.8591 10.65C15.3891 10.87 14.8541 10.98 14.2541 10.98ZM14.2691 4.74C13.7991 4.74 13.3841 4.875 13.0241 5.145C12.6641 5.405 12.4341 5.805 12.3341 6.345H16.0391C16.0091 5.855 15.8291 5.465 15.4991 5.175C15.1691 4.885 14.7591 4.74 14.2691 4.74Z" fill="white"/>
<path d="M19.6489 10.8V0.299999H26.4289V1.845H21.5689V4.785H25.4989V6.3H21.5689V10.8H19.6489Z" fill="white"/>
<path d="M28.9006 2.205C28.5506 2.205 28.2606 2.1 28.0306 1.89C27.8106 1.68 27.7006 1.415 27.7006 1.095C27.7006 0.775 27.8106 0.515 28.0306 0.314999C28.2606 0.104999 28.5506 0 28.9006 0C29.2506 0 29.5356 0.104999 29.7556 0.314999C29.9856 0.515 30.1006 0.775 30.1006 1.095C30.1006 1.415 29.9856 1.68 29.7556 1.89C29.5356 2.1 29.2506 2.205 28.9006 2.205ZM27.9406 10.8V3.36H29.8606V10.8H27.9406Z" fill="white"/>
<path d="M40.4039 10.98C39.3539 10.98 38.4339 10.75 37.6439 10.29C36.8639 9.83 36.2489 9.195 35.7989 8.385C35.3589 7.565 35.1389 6.62 35.1389 5.55C35.1389 4.48 35.3589 3.54 35.7989 2.73C36.2489 1.91 36.8639 1.27 37.6439 0.81C38.4339 0.35 39.3539 0.12 40.4039 0.12C41.4439 0.12 42.3589 0.35 43.1489 0.81C43.9389 1.27 44.5539 1.91 44.9939 2.73C45.4339 3.54 45.6539 4.48 45.6539 5.55C45.6539 6.62 45.4339 7.565 44.9939 8.385C44.5539 9.195 43.9389 9.83 43.1489 10.29C42.3589 10.75 41.4439 10.98 40.4039 10.98ZM40.4039 9.255C41.4039 9.255 42.1989 8.925 42.7889 8.265C43.3889 7.605 43.6889 6.7 43.6889 5.55C43.6889 4.4 43.3889 3.495 42.7889 2.835C42.1989 2.175 41.4039 1.845 40.4039 1.845C39.4039 1.845 38.6039 2.175 38.0039 2.835C37.4039 3.495 37.1039 4.4 37.1039 5.55C37.1039 6.7 37.4039 7.605 38.0039 8.265C38.6039 8.925 39.4039 9.255 40.4039 9.255Z" fill="white"/>
<path d="M47.3041 10.8V3.36H49.0141L49.1941 4.755C49.4641 4.275 49.8291 3.895 50.2891 3.615C50.7591 3.325 51.3091 3.18 51.9391 3.18V5.205H51.3991C50.9791 5.205 50.6041 5.27 50.2741 5.4C49.9441 5.53 49.6841 5.755 49.4941 6.075C49.3141 6.395 49.2241 6.84 49.2241 7.41V10.8H47.3041Z" fill="white"/>
<path d="M55.8164 10.98C55.1764 10.98 54.6514 10.88 54.2414 10.68C53.8314 10.47 53.5264 10.195 53.3264 9.855C53.1264 9.515 53.0264 9.14 53.0264 8.73C53.0264 8.04 53.2964 7.48 53.8364 7.05C54.3764 6.62 55.1864 6.405 56.2664 6.405H58.1564V6.225C58.1564 5.715 58.0114 5.34 57.7214 5.1C57.4314 4.86 57.0714 4.74 56.6414 4.74C56.2514 4.74 55.9114 4.835 55.6214 5.025C55.3314 5.205 55.1514 5.475 55.0814 5.835H53.2064C53.2564 5.295 53.4364 4.825 53.7464 4.425C54.0664 4.025 54.4764 3.72 54.9764 3.51C55.4764 3.29 56.0364 3.18 56.6564 3.18C57.7164 3.18 58.5514 3.445 59.1614 3.975C59.7714 4.505 60.0764 5.255 60.0764 6.225V10.8H58.4414L58.2614 9.6C58.0414 10 57.7314 10.33 57.3314 10.59C56.9414 10.85 56.4364 10.98 55.8164 10.98ZM56.2514 9.48C56.8014 9.48 57.2264 9.3 57.5264 8.94C57.8364 8.58 58.0314 8.135 58.1114 7.605H56.4764C55.9664 7.605 55.6014 7.7 55.3814 7.89C55.1614 8.07 55.0514 8.295 55.0514 8.565C55.0514 8.855 55.1614 9.08 55.3814 9.24C55.6014 9.4 55.8914 9.48 56.2514 9.48Z" fill="white"/>
<path d="M65.5536 10.98C64.7936 10.98 64.1236 10.815 63.5436 10.485C62.9636 10.155 62.5036 9.695 62.1636 9.105C61.8336 8.515 61.6686 7.84 61.6686 7.08C61.6686 6.32 61.8336 5.645 62.1636 5.055C62.5036 4.465 62.9636 4.005 63.5436 3.675C64.1236 3.345 64.7936 3.18 65.5536 3.18C66.5036 3.18 67.3036 3.43 67.9536 3.93C68.6036 4.42 69.0186 5.1 69.1986 5.97H67.1736C67.0736 5.61 66.8736 5.33 66.5736 5.13C66.2836 4.92 65.9386 4.815 65.5386 4.815C65.0086 4.815 64.5586 5.015 64.1886 5.415C63.8186 5.815 63.6336 6.37 63.6336 7.08C63.6336 7.79 63.8186 8.345 64.1886 8.745C64.5586 9.145 65.0086 9.345 65.5386 9.345C65.9386 9.345 66.2836 9.245 66.5736 9.045C66.8736 8.845 67.0736 8.56 67.1736 8.19H69.1986C69.0186 9.03 68.6036 9.705 67.9536 10.215C67.3036 10.725 66.5036 10.98 65.5536 10.98Z" fill="white"/>
<path d="M70.9027 10.8V0H72.8227V10.8H70.9027Z" fill="white"/>
<path d="M78.3996 10.98C77.6496 10.98 76.9846 10.82 76.4046 10.5C75.8246 10.18 75.3696 9.73 75.0396 9.15C74.7096 8.57 74.5446 7.9 74.5446 7.14C74.5446 6.37 74.7046 5.685 75.0246 5.085C75.3546 4.485 75.8046 4.02 76.3746 3.69C76.9546 3.35 77.6346 3.18 78.4146 3.18C79.1446 3.18 79.7896 3.34 80.3496 3.66C80.9096 3.98 81.3446 4.42 81.6546 4.98C81.9746 5.53 82.1346 6.145 82.1346 6.825C82.1346 6.935 82.1296 7.05 82.1196 7.17C82.1196 7.29 82.1146 7.415 82.1046 7.545H76.4496C76.4896 8.125 76.6896 8.58 77.0496 8.91C77.4196 9.24 77.8646 9.405 78.3846 9.405C78.7746 9.405 79.0996 9.32 79.3596 9.15C79.6296 8.97 79.8296 8.74 79.9596 8.46H81.9096C81.7696 8.93 81.5346 9.36 81.2046 9.75C80.8846 10.13 80.4846 10.43 80.0046 10.65C79.5346 10.87 78.9996 10.98 78.3996 10.98ZM78.4146 4.74C77.9446 4.74 77.5296 4.875 77.1696 5.145C76.8096 5.405 76.5796 5.805 76.4796 6.345H80.1846C80.1546 5.855 79.9746 5.465 79.6446 5.175C79.3146 4.885 78.9046 4.74 78.4146 4.74Z" fill="white"/>
</svg>
