<svg width="32" height="32" viewBox="0 0 32 32" fill="none" xmlns="http://www.w3.org/2000/svg">
<path 
fill-rule="evenodd" 
clip-rule="evenodd" 
d="M8.69955 9.69955C8.82732 9.57178 9.00062 9.5 9.18131 9.5H21.3474C21.7617 9.5 22.0974 9.16421 22.0974 8.75C22.0974 8.33579 21.7617 8 21.3474 8H9.18131C8.60279 8 8.04797 8.22982 7.63889 8.63889C7.22982 9.04797 7 9.60279 7 10.1813V21.6318C7 22.2103 7.22982 22.7651 7.63889 23.1742C8.04797 23.5833 8.60279 23.8131 9.18131 23.8131H23.4944C23.8831 23.8131 24.2559 23.6587 24.5308 23.3838C24.8057 23.109 24.9601 22.7362 24.9601 22.3474V12.3283C24.9601 11.9396 24.8057 11.5668 24.5308 11.2919C24.2559 11.017 23.8831 10.8626 23.4944 10.8626H9.18131C9.00062 10.8626 8.82732 10.7908 8.69955 10.6631C8.57178 10.5353 8.5 10.362 8.5 10.1813C8.5 10.0006 8.57178 9.82732 8.69955 9.69955ZM8.5 21.6318V12.2535C8.71788 12.3251 8.94766 12.3626 9.18131 12.3626H23.4601V22.3131H9.18131C9.00062 22.3131 8.82732 22.2413 8.69955 22.1135C8.57178 21.9858 8.5 21.8125 8.5 21.6318ZM21.1685 17.3379C21.1685 17.832 20.768 18.2325 20.274 18.2325C19.7799 18.2325 19.3794 17.832 19.3794 17.3379C19.3794 16.8438 19.7799 16.4433 20.274 16.4433C20.768 16.4433 21.1685 16.8438 21.1685 17.3379Z" />
</svg>
